Coordinates
version=1
nRows=14
nColumns=46
inDegrees=yes

Units are S.I. units (second, meters, Newtons, ...)
Angles are in degrees.

endheader
time	pelvis_tilt	pelvis_list	pelvis_rotation	pelvis_tx	pelvis_ty	pelvis_tz	bb_angle	bb_tx	bb_ty	bb_tz	hip_flexion_r	hip_adduction_r	hip_rotation_r	knee_angle_r	knee_angle_r_beta	ankle_angle_r	subtalar_angle_r	mtp_angle_r	crank_angle_r	hip_flexion_l	hip_adduction_l	hip_rotation_l	knee_angle_l	knee_angle_l_beta	ankle_angle_l	subtalar_angle_l	mtp_angle_l	crank_angle_l	lumbar_extension	lumbar_bending	lumbar_rotation	arm_flex_r	arm_add_r	arm_rot_r	elbow_flex_r	pro_sup_r	wrist_flex_r	wrist_dev_r	arm_flex_l	arm_add_l	arm_rot_l	elbow_flex_l	pro_sup_l	wrist_flex_l	wrist_dev_l
      7.50000000	    -24.52424198	      8.61523381	      8.38735871	      0.42526927	      1.08246118	     -0.32079668	      0.00000000	      0.50000000	      0.00000000	      0.25000000	     28.43975540	    -17.53673765	     -4.71987099	     24.29561237	      0.42403843	    -25.74092811	      1.23006336	      0.00000000	      0.00000000	     82.45101366	      7.43604423	      1.18263479	    113.21214525	      1.97592469	     -8.23325424	     -7.36513145	      0.00000000	      0.00000000	    -67.42722964	     -4.67765059	     -2.85899799	     33.53113352	    -23.63905362	      4.42985923	    102.75732173	     47.81186139	      0.00000000	      0.00000000	     63.08055013	    -21.94687268	     42.47669507	     90.95753053	     47.83599180	      0.00000000	      0.00000000
      7.50500000	    -24.56516053	      8.44863744	      8.67836896	      0.42529122	      1.08459218	     -0.32039457	      0.00000000	      0.50000000	      0.00000000	      0.25000000	     27.73573464	    -17.52905436	     -5.47793092	     24.14346707	      0.42138299	    -26.56584234	      1.53168574	      0.00000000	      0.00000000	     82.98679919	      7.09733162	      0.85657016	    112.43394854	      1.96234259	     -8.21220745	     -7.94290609	      0.00000000	      0.00000000	    -67.87706828	     -4.62042915	     -3.56599679	     34.38828010	    -23.23692678	      4.93417406	    102.06320761	     47.77562798	      0.00000000	      0.00000000	     63.66331055	    -23.30893050	     43.29111085	     92.58939301	     48.16608981	      0.00000000	      0.00000000
      7.51000000	    -24.88489978	      8.18217540	      8.80832758	      0.42509739	      1.08633722	     -0.31981486	      0.00000000	      0.50000000	      0.00000000	      0.25000000	     27.62400037	    -17.35647777	     -5.95381370	     24.41441008	      0.42611184	    -27.08027748	      1.63465822	      0.00000000	      0.00000000	     83.68221860	      6.47239660	      0.59033216	    111.59485782	      1.94769770	     -7.72762969	     -8.02071474	      0.00000000	      0.00000000	    -67.99514115	     -4.72981987	     -3.70914465	     34.61316729	    -23.22580132	      4.96022184	    101.98878564	     47.76674645	      0.00000000	      0.00000000	     64.13401044	    -23.43678923	     43.15862706	     92.78281769	     48.17757247	      0.00000000	      0.00000000
      7.51500000	    -25.13763094	      7.96708691	      8.81399454	      0.42496179	      1.08834942	     -0.31915559	      0.00000000	      0.50000000	      0.00000000	      0.25000000	     27.66081578	    -17.16319721	     -6.23665384	     25.01759963	      0.43663948	    -27.61501031	      1.37537219	      0.00000000	      0.00000000	     84.07821314	      5.88895465	      0.34117159	    110.60226929	      1.93037376	     -6.96661874	     -7.96580670	      0.00000000	      0.00000000	    -68.24873293	     -4.93643233	     -3.96068382	     34.98893804	    -23.15363934	      4.97939860	    101.82355505	     47.74191722	      0.00000000	      0.00000000	     64.64812325	    -23.78208695	     43.14823789	     93.26250442	     48.24699730	      0.00000000	      0.00000000
      7.52000000	    -25.42085313	      7.74488147	      8.76863869	      0.42469477	      1.09038282	     -0.31829874	      0.00000000	      0.50000000	      0.00000000	      0.25000000	     27.93170362	    -16.92122044	     -6.36276063	     25.96986010	      0.45325956	    -27.82151173	      0.82967458	      0.00000000	      0.00000000	     84.29186964	      5.19523113	      0.12063206	    109.43008476	      1.90991528	     -5.87215357	     -7.52749887	      0.00000000	      0.00000000	    -68.50304744	     -5.09140185	     -4.97768885	     36.29353065	    -22.13106409	      5.74920059	    100.68334821	     47.66442805	      0.00000000	      0.00000000	     64.94436353	    -25.96114103	     43.85894750	     95.87265239	     48.70820757	      0.00000000	      0.00000000
      7.52500000	    -25.68683996	      7.52900658	      8.74021760	      0.42420610	      1.09243856	     -0.31790188	      0.00000000	      0.50000000	      0.00000000	      0.25000000	     28.41089260	    -16.78601288	     -6.60535590	     27.31661857	      0.47676493	    -27.90366004	      0.30202927	      0.00000000	      0.00000000	     84.27004607	      4.60931194	     -0.12770477	    108.08104888	      1.88637016	     -4.50525939	     -7.17104917	      0.00000000	      0.00000000	    -68.73699987	     -5.25947813	     -5.22335297	     36.73823193	    -22.16180050	      5.85275685	    100.52033719	     47.65430541	      0.00000000	      0.00000000	     65.36098049	    -26.19927253	     43.65202504	     96.20642941	     48.72574939	      0.00000000	      0.00000000
      7.53000000	    -25.93372915	      7.27648323	      8.61439188	      0.42381052	      1.09445659	     -0.31746143	      0.00000000	      0.50000000	      0.00000000	      0.25000000	     28.98916740	    -16.53451510	     -6.51325652	     28.80031257	      0.50266028	    -27.93546281	     -0.32603728	      0.00000000	      0.00000000	     84.02949013	      3.94952815	     -0.30804695	    106.57576650	      1.86009803	     -2.86936056	     -6.59804065	      0.00000000	      0.00000000	    -68.98855461	     -5.47285403	     -5.38525447	     37.19545176	    -22.13223005	      5.90360028	    100.37216599	     47.63938287	      0.00000000	      0.00000000	     65.79236990	    -26.53354712	     43.53412619	     96.80183268	     48.79598889	      0.00000000	      0.00000000
      7.53500000	    -26.23135946	      6.94082449	      8.33712197	      0.42348705	      1.09629306	     -0.31686730	      0.00000000	      0.50000000	      0.00000000	      0.25000000	     29.81491290	    -16.12394603	     -6.21024041	     30.50797606	      0.53246463	    -27.99429193	     -1.05217543	      0.00000000	      0.00000000	     83.64169343	      3.15520927	     -0.39180295	    104.91690546	      1.83114544	     -0.92342723	     -5.72580366	      0.00000000	      0.00000000	    -69.17189788	     -5.75665443	     -5.54059395	     37.67524689	    -21.97296445	      6.04227377	    100.14182151	     47.62425882	      0.00000000	      0.00000000	     66.12462124	    -27.12178426	     43.44319088	     97.85058011	     48.93819935	      0.00000000	      0.00000000
      7.54000000	    -26.43523030	      6.51956670	      8.12999603	      0.42299700	      1.09813864	     -0.31697496	      0.00000000	      0.50000000	      0.00000000	      0.25000000	     30.69266239	    -15.76497506	     -6.02485849	     32.46827898	      0.56667837	    -28.06982323	     -1.44316788	      0.00000000	      0.00000000	     83.01919201	      2.58172566	     -0.37234616	    103.09318001	      1.79931543	      0.97935871	     -5.51158344	      0.00000000	      0.00000000	    -69.37049998	     -5.84355661	     -5.52425856	     38.21844573	    -22.03733761	      6.02297274	    100.06780293	     47.60816974	      0.00000000	      0.00000000	     66.40006780	    -27.34214743	     43.30239182	     98.32401401	     48.99093718	      0.00000000	      0.00000000
      7.54500000	    -26.84997657	      6.29480713	      7.82591386	      0.42251203	      1.09978663	     -0.31652475	      0.00000000	      0.50000000	      0.00000000	      0.25000000	     31.94563399	    -15.40767006	     -5.10670254	     34.59679966	      0.60382806	    -28.14305584	     -2.05617481	      0.00000000	      0.00000000	     82.34421400	      1.90773274	     -0.56712929	    100.97429916	      1.76233398	      3.09399720	     -4.21054887	      0.00000000	      0.00000000	    -69.42731432	     -6.15170452	     -5.75328499	     38.71560808	    -21.91535490	      6.21385961	     99.85298329	     47.59748723	      0.00000000	      0.00000000	     66.60241885	    -27.85272347	     43.10654343	     99.33066203	     49.11748588	      0.00000000	      0.00000000
      7.55000000	    -27.15117372	      5.90298694	      7.53023685	      0.42220488	      1.10139095	     -0.31625618	      0.00000000	      0.50000000	      0.00000000	      0.25000000	     33.12233413	    -14.89238192	     -4.26619746	     36.81033653	      0.64246157	    -28.05773380	     -2.57690226	      0.00000000	      0.00000000	     81.47748877	      1.28739418	     -0.58409103	     98.82781473	      1.72487076	      5.33265397	     -3.46011054	      0.00000000	      0.00000000	    -69.50831237	     -6.16441325	     -6.86455935	     40.47564621	    -20.71493602	      7.84958784	     98.22463887	     47.54844582	      0.00000000	      0.00000000	     65.79977541	    -30.00499375	     42.19235185	    102.25816506	     49.39850460	      0.00000000	      0.00000000
      7.55500000	    -27.29061250	      5.58161497	      7.22709526	      0.42218947	      1.10314334	     -0.31616144	      0.00000000	      0.50000000	      0.00000000	      0.25000000	     34.18622955	    -14.42428965	     -3.39228112	     39.13920970	      0.68310808	    -27.85091169	     -3.05567258	      0.00000000	      0.00000000	     80.20352077	      0.71212539	     -0.75893152	     96.46990485	      1.68371747	      7.49696028	     -3.02609732	      0.00000000	      0.00000000	    -69.74381409	     -6.34748963	     -6.76644488	     40.94798774	    -20.81008711	      7.93082059	     98.15139488	     47.54829662	      0.00000000	      0.00000000	     65.92309203	    -30.00419189	     41.91479172	    102.46882570	     49.38747818	      0.00000000	      0.00000000
      7.56000000	    -27.59515445	      5.26289791	      6.84815938	      0.42211943	      1.10446605	     -0.31610976	      0.00000000	      0.50000000	      0.00000000	      0.25000000	     35.54217663	    -13.85636131	     -2.13622239	     41.59959116	      0.72604983	    -27.58133546	     -3.16201242	      0.00000000	      0.00000000	     79.04744985	      0.13433893	     -0.94661389	     94.01382417	      1.64085077	      9.52888339	     -2.50869525	      0.00000000	      0.00000000	    -69.74328123	     -6.57363384	     -6.93861096	     41.39629195	    -20.63398416	      8.45916729	     97.85400854	     47.57241029	      0.00000000	      0.00000000	     65.64612225	    -30.26084918	     41.36792568	    103.26787426	     49.42606409	      0.00000000	      0.00000000
      7.56500000	    -27.72658494	      4.90168459	      6.58780336	      0.42237335	      1.10595360	     -0.31627873	      0.00000000	      0.50000000	      0.00000000	      0.25000000	     36.70044538	    -13.31700649	     -1.23215292	     44.16422389	      0.77081112	    -27.12262866	     -3.51185719	      0.00000000	      0.00000000	     77.62615856	     -0.31470089	     -1.16808616	     91.29695704	      1.59343250	     11.10244592	     -2.45564733	      0.00000000	      0.00000000	    -69.92577979	     -6.60355372	     -6.83656361	     42.00165367	    -20.58938530	      8.73172636	     97.65610081	     47.57153121	      0.00000000	      0.00000000	     65.44017831	    -30.29591402	     40.98681327	    103.77166857	     49.44939080	      0.00000000	      0.00000000
